<svg width="193" height="32" viewBox="0 0 193 32" fill="none" xmlns="http://www.w3.org/2000/svg">
<path d="M29.3327 16.0003C29.3327 8.64033 23.3593 2.66699 15.9993 2.66699C8.63935 2.66699 2.66602 8.64033 2.66602 16.0003C2.66602 22.4537 7.25268 27.827 13.3327 29.067V20.0003H10.666V16.0003H13.3327V12.667C13.3327 10.0937 15.426 8.00033 17.9993 8.00033H21.3327V12.0003H18.666C17.9327 12.0003 17.3327 12.6003 17.3327 13.3337V16.0003H21.3327V20.0003H17.3327V29.267C24.066 28.6003 29.3327 22.9203 29.3327 16.0003Z" fill="white"/>
<path d="M73.334 16C73.334 16.7911 73.0994 17.5645 72.6599 18.2223C72.2203 18.8801 71.5956 19.3928 70.8647 19.6955C70.1338 19.9983 69.3295 20.0775 68.5536 19.9231C67.7777 19.7688 67.065 19.3878 66.5056 18.8284C65.9461 18.269 65.5652 17.5563 65.4108 16.7804C65.2565 16.0044 65.3357 15.2002 65.6385 14.4693C65.9412 13.7384 66.4539 13.1136 67.1117 12.6741C67.7695 12.2346 68.5429 12 69.334 12C70.3938 12.0033 71.4093 12.4258 72.1588 13.1752C72.9082 13.9246 73.3307 14.9401 73.334 16ZM81.834 10.5V21.5C81.834 23.3565 81.0965 25.137 79.7837 26.4497C78.471 27.7625 76.6905 28.5 74.834 28.5H63.834C61.9775 28.5 60.197 27.7625 58.8842 26.4497C57.5715 25.137 56.834 23.3565 56.834 21.5V10.5C56.834 8.64348 57.5715 6.86301 58.8842 5.55025C60.197 4.2375 61.9775 3.5 63.834 3.5H74.834C76.6905 3.5 78.471 4.2375 79.7837 5.55025C81.0965 6.86301 81.834 8.64348 81.834 10.5ZM75.334 16C75.334 14.8133 74.9821 13.6533 74.3228 12.6666C73.6635 11.6799 72.7264 10.9108 71.6301 10.4567C70.5337 10.0026 69.3273 9.88378 68.1634 10.1153C66.9996 10.3468 65.9305 10.9182 65.0913 11.7574C64.2522 12.5965 63.6808 13.6656 63.4493 14.8295C63.2178 15.9933 63.3366 17.1997 63.7907 18.2961C64.2448 19.3925 65.0139 20.3295 66.0006 20.9888C66.9873 21.6481 68.1473 22 69.334 22C70.9253 22 72.4514 21.3679 73.5766 20.2426C74.7018 19.1174 75.334 17.5913 75.334 16ZM77.334 9.5C77.334 9.20333 77.246 8.91332 77.0812 8.66665C76.9164 8.41997 76.6821 8.22771 76.408 8.11418C76.1339 8.00065 75.8323 7.97094 75.5413 8.02882C75.2504 8.0867 74.9831 8.22956 74.7733 8.43934C74.5635 8.64912 74.4207 8.91639 74.3628 9.20736C74.3049 9.49834 74.3346 9.79994 74.4482 10.074C74.5617 10.3481 74.754 10.5824 75.0006 10.7472C75.2473 10.912 75.5373 11 75.834 11C76.2318 11 76.6133 10.842 76.8946 10.5607C77.1759 10.2794 77.334 9.89782 77.334 9.5Z" fill="white"/>
<g clip-path="url(#clip0_14951_223)">
<path d="M123.102 3.99805H123.28C124.924 4.00405 133.254 4.06405 135.5 4.66805C136.179 4.85238 136.798 5.21169 137.294 5.71006C137.791 6.20843 138.148 6.82841 138.33 7.50805C138.532 8.26805 138.674 9.27405 138.77 10.312L138.79 10.52L138.834 11.04L138.85 11.248C138.98 13.076 138.996 14.788 138.998 15.162V15.312C138.996 15.7 138.978 17.528 138.834 19.432L138.818 19.642L138.8 19.85C138.7 20.994 138.552 22.13 138.33 22.966C138.149 23.646 137.792 24.2662 137.295 24.7647C136.798 25.2631 136.179 25.6223 135.5 25.806C133.18 26.43 124.362 26.474 123.14 26.476H122.856C122.238 26.476 119.682 26.464 117.002 26.372L116.662 26.36L116.488 26.352L116.146 26.338L115.804 26.324C113.584 26.226 111.47 26.068 110.496 25.804C109.817 25.6204 109.198 25.2616 108.701 24.7635C108.205 24.2654 107.848 23.6456 107.666 22.966C107.444 22.132 107.296 20.994 107.196 19.85L107.18 19.64L107.164 19.432C107.065 18.0768 107.011 16.7188 107 15.36L107 15.114C107.004 14.684 107.02 13.198 107.128 11.558L107.142 11.352L107.148 11.248L107.164 11.04L107.208 10.52L107.228 10.312C107.324 9.27405 107.466 8.26605 107.668 7.50805C107.849 6.82814 108.206 6.20787 108.703 5.70941C109.2 5.21095 109.819 4.85183 110.498 4.66805C111.472 4.40805 113.586 4.24805 115.806 4.14805L116.146 4.13405L116.49 4.12205L116.662 4.11605L117.004 4.10205C118.907 4.0408 120.812 4.00679 122.716 4.00005H123.102V3.99805ZM119.8 10.418V20.054L128.114 15.238L119.8 10.418Z" fill="white"/>
</g>
<path d="M183.134 7.76C182.222 6.7195 181.72 5.38324 181.72 4H177.6V20.5333C177.568 21.428 177.191 22.2755 176.547 22.8973C175.902 23.519 175.042 23.8665 174.147 23.8667C172.254 23.8667 170.68 22.32 170.68 20.4C170.68 18.1067 172.894 16.3867 175.174 17.0933V12.88C170.574 12.2667 166.547 15.84 166.547 20.4C166.547 24.84 170.227 28 174.134 28C178.32 28 181.72 24.6 181.72 20.4V12.0133C183.391 13.2131 185.397 13.8569 187.454 13.8533V9.73333C187.454 9.73333 184.947 9.85333 183.134 7.76Z" fill="white"/>
<defs>
<clipPath id="clip0_14951_223">
<rect width="32" height="32" fill="white" transform="translate(107)"/>
</clipPath>
</defs>
</svg>
