<svg width="14" height="14" viewBox="0 0 14 14" fill="none" xmlns="http://www.w3.org/2000/svg">
<g clip-path="url(#clip0_2803_6331)">
<path d="M8.75966 12.9999C9.37549 13.3972 10.1093 13.5704 10.8378 13.4902C11.5663 13.4101 12.2449 13.0816 12.7597 12.5599L13.2097 12.1199C13.4069 11.9182 13.5174 11.6472 13.5174 11.3649C13.5174 11.0827 13.4069 10.8117 13.2097 10.6099L11.2997 8.71994C11.0996 8.52329 10.8302 8.4131 10.5497 8.4131C10.2691 8.4131 9.99977 8.52329 9.79966 8.71994C9.59787 8.91723 9.32687 9.02769 9.04466 9.02769C8.76245 9.02769 8.49146 8.91723 8.28966 8.71994L5.28966 5.71994C5.18958 5.62132 5.11011 5.50378 5.05587 5.37417C5.00162 5.24456 4.97369 5.10545 4.97369 4.96494C4.97369 4.82444 5.00162 4.68533 5.05587 4.55572C5.11011 4.4261 5.18958 4.30857 5.28966 4.20994C5.48632 4.00984 5.59651 3.7405 5.59651 3.45994C5.59651 3.17938 5.48632 2.91005 5.28966 2.70994L3.38966 0.809944C3.18787 0.612659 2.91687 0.502197 2.63466 0.502197C2.35245 0.502197 2.08146 0.612659 1.87966 0.809944L1.43966 1.25994C0.918008 1.77469 0.589497 2.45335 0.509366 3.18181C0.429235 3.91028 0.602371 4.64412 0.999662 5.25994C3.06971 8.31068 5.7036 10.9378 8.75966 12.9999Z" stroke="white" stroke-linecap="round" stroke-linejoin="round"/>
</g>
<defs>
<clipPath id="clip0_2803_6331">
<rect width="14" height="14" fill="white"/>
</clipPath>
</defs>
</svg>
