<svg width="64" height="64" viewBox="0 0 64 64" fill="none" xmlns="http://www.w3.org/2000/svg">
<path d="M28.2804 37.3198C27.2584 36.5308 26.0174 38.1008 27.0384 38.8878C29.4434 40.7448 30.7724 43.1518 31.4694 45.8038C28.7104 45.1318 24.9504 45.8608 22.9994 47.5538C22.5454 47.9468 22.4064 48.7528 22.9764 49.1378C25.5394 50.8718 29.2684 50.6768 32.0564 49.3648C32.3594 53.3948 31.7024 57.6738 31.2904 61.3488C31.1494 62.6258 33.1324 62.8958 33.2754 61.6108C34.1804 53.4758 35.7764 43.1068 28.2794 37.3198" fill="#A0ECE6"/>
<path d="M40.3701 34.8049C41.3921 34.0159 42.6321 35.5859 41.6121 36.3729C39.2061 38.2279 37.8781 40.6369 37.1811 43.2889C39.9401 42.6149 43.7001 43.3459 45.6511 45.0369C46.1051 45.4299 46.2431 46.2379 45.6741 46.6229C43.1101 48.3549 39.3811 48.1599 36.5941 46.8479C36.2921 50.8779 36.9491 55.1569 37.3601 58.8319C37.5021 60.1109 35.5191 60.3789 35.3761 59.0939C34.4721 50.9609 32.8741 40.5899 40.3721 34.8049" fill="#A0ECE6"/>
<path d="M48.9379 34.3851C47.0689 32.0511 44.0339 31.2521 41.3189 32.7701C37.1639 35.0901 35.2479 39.2061 34.3699 43.7801C33.0399 39.6961 30.4809 36.5751 25.7339 36.3621C17.9009 36.0101 19.4289 46.8721 19.4239 52.2621C19.4219 54.1981 20.9379 54.3751 20.9379 52.4401C20.9409 48.8541 20.4969 38.3501 26.2739 39.4911C34.5869 41.1341 32.8319 55.3971 32.3139 61.1301C32.1399 63.0541 35.1399 62.9741 35.3139 61.0641C35.3539 60.6261 35.3939 60.1521 35.4339 59.6501C36.0959 59.5431 36.6899 59.0541 36.6899 58.1911C36.6689 52.7791 36.4959 47.3881 37.9509 42.1211C38.7389 39.2601 40.4269 36.3421 43.2879 35.1891C48.6949 33.0111 47.4699 42.1791 46.5049 44.4941C45.7689 46.2601 46.2839 47.6331 47.0259 45.8481C48.5579 42.1821 51.6819 37.8181 48.9379 34.3891" fill="#47D3A7"/>
<path d="M16.6018 18L13.9028 14.97C13.9028 14.97 13.0678 10.159 17.3858 12.936L18.6378 16.806L16.6018 17.995" fill="#DDE4E9"/>
<path d="M18.6899 16.8841L17.4219 13.0321C17.4219 13.0321 18.5699 8.28707 21.4219 12.5551L21.0269 16.6021L18.6859 16.8841" fill="#C8D2D9"/>
<path d="M19.7034 16.448L21.4474 12.524C21.4474 12.524 25.7274 9.62202 24.9284 15L21.7394 17.896L19.7034 16.448ZM19.9874 22.259L19.7604 26.308C19.7604 26.308 16.9474 30.298 15.8574 25.283L17.7084 21.66L19.9874 22.259ZM21.7084 18.711L25.6024 19.937C25.6024 19.937 28.5374 23.947 23.2404 23.925L20.3294 21.042L21.7084 18.711Z" fill="#DDE4E9"/>
<path d="M17.7202 21.572L15.8942 25.195C15.8942 25.195 11.7252 27.734 12.7252 22.699L15.8672 20.113L17.7202 21.572Z" fill="#C8D2D9"/>
<path d="M16.5066 21.13L12.7246 22.585C12.7246 22.585 7.92964 21.663 12.0536 18.606L16.1166 18.805L16.5066 21.13Z" fill="#DDE4E9"/>
<path d="M16.1105 19.5349L12.1695 18.5859C12.1695 18.5859 8.74947 15.1059 13.8795 14.9299L17.1105 17.3969L16.1105 19.5349ZM20.4025 17.7789L24.3935 15.3379C24.3935 15.3379 30.0265 15.3849 25.9835 19.7149L21.3315 20.3379L20.4025 17.7789Z" fill="#C8D2D9"/>
<path d="M18.5889 22.1951C20.3148 22.1951 21.7139 20.796 21.7139 19.0701C21.7139 17.3442 20.3148 15.9451 18.5889 15.9451C16.863 15.9451 15.4639 17.3442 15.4639 19.0701C15.4639 20.796 16.863 22.1951 18.5889 22.1951Z" fill="#F8AE1C"/>
<path d="M17.9023 19.6811C17.4849 19.2106 17.2198 18.6248 17.1418 18.0008C17.0638 17.3768 17.1766 16.7438 17.4653 16.1851C16.9881 16.3602 16.5609 16.6491 16.2206 17.0266C15.8802 17.4041 15.637 17.8588 15.512 18.3515C15.387 18.8442 15.384 19.3599 15.5033 19.8539C15.6225 20.348 15.8603 20.8056 16.1963 21.1871C16.5332 21.5684 16.9581 21.8616 17.4341 22.0413C17.9102 22.221 18.4229 22.2817 18.9277 22.2181C19.4325 22.1546 19.9142 21.9686 20.3308 21.6765C20.7474 21.3844 21.0864 20.995 21.3183 20.5421C20.7283 20.7587 20.0868 20.7924 19.4774 20.6388C18.868 20.4852 18.319 20.1514 17.9023 19.6811Z" fill="#CA8A2A"/>
<path d="M21.0703 21.2419L23.5173 24.4799C23.5173 24.4799 23.9553 29.3409 19.8773 26.2239L18.9453 22.2629L21.0703 21.2419Z" fill="#C8D2D9"/>
<path d="M41.9155 24.795L39.2165 21.775C39.2165 21.775 38.3805 16.964 42.6995 19.741L43.9525 23.612L41.9155 24.8" fill="#86CDEC"/>
<path d="M44.0103 23.674L42.7393 19.823C42.7393 19.823 43.8893 15.077 46.7393 19.346L46.3463 23.393L44.0063 23.674" fill="#8ABDD8"/>
<path d="M45.0199 23.2401L46.7639 19.3161C46.7639 19.3161 51.0429 16.4141 50.2429 21.7931L47.0569 24.6891L45.0199 23.2401ZM45.2999 29.0501L45.0669 33.1001C45.0669 33.1001 42.2559 37.0881 41.1689 32.0741L43.0179 28.4511L45.2999 29.0501ZM47.0199 25.5011L50.9139 26.7281C50.9139 26.7281 53.8519 30.7381 48.5529 30.7161L45.6399 27.8331L47.0199 25.5011Z" fill="#86CDEC"/>
<path d="M43.0297 28.3631L41.2057 31.9861C41.2057 31.9861 37.0377 34.5261 38.0337 29.4901L41.1767 26.9041L43.0297 28.3631Z" fill="#8ABDD8"/>
<path d="M41.8192 27.9151L38.0362 29.3711C38.0362 29.3711 33.2432 28.4491 37.3682 25.3921L41.4312 25.5901L41.8192 27.9151Z" fill="#DDE4E9"/>
<path d="M41.4199 26.3259L37.4769 25.3759C37.4769 25.3759 34.0569 21.8959 39.1879 21.7209L42.4179 24.1879L41.4199 26.3259ZM45.6689 24.5219L49.6609 22.0819C49.6609 22.0819 55.2939 22.1269 51.2509 26.4589L46.5979 27.0799L45.6689 24.5219Z" fill="#8ABDD8"/>
<path d="M43.9024 28.99C45.6288 28.99 47.0284 27.5905 47.0284 25.864C47.0284 24.1376 45.6288 22.738 43.9024 22.738C42.1759 22.738 40.7764 24.1376 40.7764 25.864C40.7764 27.5905 42.1759 28.99 43.9024 28.99Z" fill="#ECD4A9"/>
<path d="M43.2201 26.4711C42.803 26.0006 42.5379 25.4149 42.4598 24.7909C42.3816 24.167 42.494 23.534 42.7821 22.9751C42.3051 23.1505 41.8781 23.4395 41.538 23.8171C41.1979 24.1947 40.9549 24.6495 40.8301 25.1421C40.7053 25.6348 40.7025 26.1504 40.8218 26.6444C40.9412 27.1383 41.1792 27.5958 41.5151 27.9771C42.0643 28.5979 42.8375 28.9753 43.6648 29.0263C44.4921 29.0773 45.3058 28.7978 45.9271 28.2491C46.2291 27.9811 46.4601 27.6721 46.6361 27.3331C46.0461 27.5497 45.4044 27.5834 44.795 27.4296C44.1856 27.2758 43.6367 26.9417 43.2201 26.4711Z" fill="#E7CB9F"/>
<path d="M46.3399 27.9861L48.7849 31.2221C48.7849 31.2221 49.2209 36.0861 45.1439 32.9671L44.2119 29.0061L46.3399 27.9861Z" fill="#8ABDD8"/>
<path d="M26.9028 25.0401L24.2038 22.0201C24.2038 22.0201 23.3678 17.2091 27.6858 19.9871L28.9378 23.8561L26.9028 25.0451" fill="#86CDEC"/>
<path d="M28.9946 23.916L27.7236 20.064C27.7236 20.064 28.8706 15.32 31.7236 19.588L31.3306 23.636L28.9916 23.916" fill="#8ABDD8"/>
<path d="M30.0002 23.48L31.7432 19.556C31.7432 19.556 36.0252 16.654 35.2252 22.032L32.0352 24.928L30.0002 23.48ZM30.2902 29.29L30.0612 33.339C30.0612 33.339 27.2472 37.329 26.1602 32.314L28.0072 28.691L30.2902 29.29ZM32.0102 25.743L35.9062 26.97C35.9062 26.97 38.8442 30.99 33.5432 30.958L30.6322 28.075L32.0102 25.743Z" fill="#86CDEC"/>
<path d="M28.02 28.604L26.194 32.227C26.194 32.227 22.025 34.768 23.025 29.731L26.164 27.145L28.02 28.604Z" fill="#8ABDD8"/>
<path d="M26.8092 28.1599L23.0272 29.6159C23.0272 29.6159 18.2312 28.6939 22.3552 25.6379L26.4192 25.8349L26.8092 28.1599Z" fill="#DDE4E9"/>
<path d="M26.4111 26.5679L22.4691 25.6169C22.4691 25.6169 19.0481 22.1369 24.1771 21.9619L27.4071 24.4289L26.4111 26.5679ZM30.6551 24.7629L34.6471 22.3219C34.6471 22.3219 40.2821 22.3689 36.2391 26.6989L31.5851 27.3219L30.6551 24.7629Z" fill="#8ABDD8"/>
<path d="M28.8896 29.2351C30.6155 29.2351 32.0146 27.836 32.0146 26.1101C32.0146 24.3842 30.6155 22.9851 28.8896 22.9851C27.1638 22.9851 25.7646 24.3842 25.7646 26.1101C25.7646 27.836 27.1638 29.2351 28.8896 29.2351Z" fill="#ECD4A9"/>
<path d="M28.2 26.7121C27.7825 26.2417 27.5172 25.656 27.439 25.032C27.3608 24.4079 27.4734 23.7749 27.762 23.2161C27.285 23.3913 26.8579 23.6803 26.5179 24.0579C26.1779 24.4356 25.9352 24.8905 25.8108 25.3832C25.6864 25.8759 25.6842 26.3915 25.8042 26.8853C25.9243 27.3791 26.163 27.8361 26.4997 28.2167C26.8364 28.5973 27.2608 28.89 27.7363 29.0694C28.2117 29.2488 28.7238 29.3095 29.228 29.2462C29.7322 29.1829 30.2133 28.9975 30.6296 28.7061C31.0459 28.4147 31.3849 28.0261 31.617 27.5741C31.0268 27.7911 30.3849 27.8249 29.7753 27.6711C29.1656 27.5173 28.6166 27.183 28.2 26.7121Z" fill="#E7CB9F"/>
<path d="M31.3301 28.23L33.7761 31.468C33.7761 31.468 34.2121 36.33 30.1351 33.213L29.2031 29.252L31.3301 28.23Z" fill="#8ABDD8"/>
<path d="M31.6048 29.778C31.6048 29.778 29.5848 28.968 29.1538 26.357C28.7158 23.745 26.8358 24.331 26.8358 24.331L23.0478 29.197C23.2878 26.357 23.4298 22.467 22.4858 21.613C20.9558 20.24 18.9288 22.584 18.9288 22.584C18.9288 22.584 17.4218 24.147 14.8358 23.572C12.2498 22.999 12.0858 24.9599 12.0858 24.9599L15.6428 31.1019C13.0978 30.0099 9.88684 28.848 8.85384 29.422C7.05884 30.418 8.61584 33.102 8.61584 33.102C8.61584 33.102 9.60584 35.03 8.22384 37.29C6.84684 39.552 8.64684 40.341 8.64684 40.341L14.4368 39.198C12.8948 41.493 11.1678 44.4189 11.5398 45.5379C12.1858 47.4849 15.1138 46.45 15.1138 46.45C15.1138 46.45 17.1898 45.8369 19.1538 47.6139C21.1178 49.3909 22.2298 47.764 22.2298 47.764L22.1668 39.6839C23.4538 41.9629 26.4008 46.901 27.9698 47.069C30.0118 47.292 30.2848 44.2039 30.2848 44.2039C30.2848 44.2039 30.5968 42.056 33.0258 41.007C35.4638 39.962 34.4418 38.275 34.4418 38.275L28.4848 35.6069C30.9008 34.7869 33.4708 33.707 33.8328 32.714C34.5348 30.783 31.6038 29.7819 31.6038 29.7819" fill="#F46384"/>
<path d="M22.1698 39.922C22.1698 39.922 27.8578 44.916 31.5708 41.951C31.5708 41.951 30.1338 43.377 30.2888 44.199C30.2888 44.199 29.9418 46.7009 28.6558 47.0079C28.6558 47.0079 27.7178 47.3209 26.8728 46.4339C26.0268 45.5469 23.5698 42.174 22.1698 39.922ZM18.4958 45.713C18.4958 45.713 15.5708 46.748 14.9228 44.803C14.5558 43.684 16.2778 40.7579 17.8188 38.4649L12.0308 39.6059C12.0308 39.6059 10.2238 38.8149 11.6058 36.5569C12.9868 34.2949 12.0018 32.365 12.0018 32.365C12.0018 32.365 11.0788 30.7689 11.4788 29.5839C10.3188 29.2699 9.33984 29.15 8.85384 29.422C7.05884 30.418 8.61584 33.102 8.61584 33.102C8.61584 33.102 9.60584 35.03 8.22384 37.29C6.84684 39.552 8.64684 40.341 8.64684 40.341L14.4368 39.198C12.8948 41.493 11.1678 44.4189 11.5398 45.5379C12.1858 47.4849 15.1138 46.45 15.1138 46.45C15.1138 46.45 17.1898 45.8369 19.1538 47.6139C21.1178 49.3909 22.2298 47.764 22.2298 47.764L22.2228 46.618C20.3598 45.168 18.4958 45.713 18.4958 45.713ZM19.0298 30.3689L15.4748 24.2259C15.4748 24.2259 15.4948 23.976 15.6368 23.683C15.3687 23.6667 15.1022 23.6296 14.8398 23.572C12.2538 22.999 12.0898 24.9599 12.0898 24.9599L14.2578 28.697C15.6588 29.003 17.4728 29.6969 19.0298 30.3689Z" fill="#D34D75"/>
<path d="M20.4384 38.3161C22.5548 38.3161 24.2704 36.6005 24.2704 34.4841C24.2704 32.3677 22.5548 30.6521 20.4384 30.6521C18.3221 30.6521 16.6064 32.3677 16.6064 34.4841C16.6064 36.6005 18.3221 38.3161 20.4384 38.3161Z" fill="#FFC84D"/>
<path d="M28.6202 32C28.2182 31.865 27.8142 31.73 27.4232 31.574C26.7552 31.308 25.8582 31.918 25.6032 32.584C25.4722 32.928 25.4722 33.303 25.6122 33.609C25.7712 33.959 26.0462 34.111 26.3902 34.252C26.7812 34.41 27.1872 34.547 27.5872 34.682C28.2762 34.911 29.1382 34.368 29.4032 33.672C29.7032 32.909 29.3122 32.231 28.6202 32.002M25.1802 27.759C24.8372 28.011 24.4932 28.261 24.1392 28.488C23.5302 28.881 23.5102 29.96 23.9012 30.552C24.1052 30.863 24.4142 31.078 24.7462 31.144C25.1192 31.214 25.4022 31.085 25.7202 30.882C26.0742 30.655 26.4202 30.405 26.7652 30.155C27.3492 29.725 27.4112 28.711 26.9982 28.089C26.5432 27.406 25.7652 27.33 25.1802 27.759ZM19.8232 26.545C19.7702 26.968 19.7142 27.388 19.6372 27.806C19.5042 28.515 20.2742 29.271 20.9732 29.394C21.3382 29.457 21.7072 29.384 21.9832 29.185C22.2922 28.961 22.3902 28.667 22.4612 28.3C22.5452 27.884 22.6002 27.464 22.6512 27.043C22.7402 26.323 22.0462 25.583 21.3102 25.452C20.5042 25.312 19.9122 25.826 19.8232 26.545ZM14.9412 29.23C15.2432 29.529 15.5472 29.828 15.8282 30.14C16.3092 30.675 17.3852 30.519 17.9032 30.038C18.1782 29.784 18.3392 29.448 18.3532 29.108C18.3572 28.725 18.1822 28.469 17.9332 28.19C17.6532 27.876 17.3502 27.577 17.0472 27.279C16.5262 26.77 15.5142 26.877 14.9692 27.383C14.3722 27.939 14.4212 28.72 14.9412 29.23ZM12.5072 33.695C12.9152 33.82 13.3192 33.951 13.7122 34.099C14.3882 34.357 15.2702 33.732 15.5152 33.064C15.6412 32.714 15.6342 32.34 15.4882 32.035C15.3202 31.69 15.0502 31.542 14.7032 31.408C14.3092 31.254 13.9032 31.125 13.4972 30.998C12.8072 30.78 11.9532 31.339 11.6982 32.038C11.4122 32.807 11.8172 33.479 12.5072 33.695ZM13.5182 38.494C13.9082 38.324 14.2992 38.16 14.6962 38.015C15.3802 37.771 15.6372 36.722 15.3882 36.056C15.2684 35.7207 15.0212 35.4461 14.7002 35.292C14.3462 35.138 14.0402 35.2 13.6902 35.327C13.2952 35.47 12.9022 35.636 12.5112 35.804C11.8472 36.089 11.5592 37.07 11.8192 37.763C12.1062 38.531 12.8542 38.781 13.5182 38.494ZM16.8272 41.541C16.9732 41.139 17.1202 40.742 17.2942 40.352C17.5802 39.696 17.0012 38.784 16.3502 38.504C16.0052 38.359 15.6292 38.348 15.3202 38.479C14.9652 38.627 14.8022 38.891 14.6552 39.235C14.4802 39.622 14.3302 40.018 14.1862 40.417C13.9352 41.099 14.4482 41.98 15.1322 42.271C15.8852 42.586 16.5742 42.223 16.8272 41.541ZM21.4562 41.941C21.3736 41.5247 21.3046 41.1058 21.2492 40.685C21.1582 39.968 20.1952 39.482 19.4872 39.578C19.1338 39.6229 18.8122 39.8046 18.5912 40.084C18.3672 40.393 18.3632 40.701 18.4062 41.072C18.4552 41.494 18.5352 41.912 18.6112 42.328C18.7422 43.041 19.6362 43.537 20.3712 43.435C21.1832 43.324 21.5912 42.654 21.4562 41.941ZM26.0602 39.816C25.7695 39.5063 25.489 39.1871 25.2192 38.859C24.7682 38.296 23.6932 38.392 23.1462 38.845C23.0079 38.9544 22.8925 39.0901 22.8067 39.2442C22.7209 39.3983 22.6664 39.5678 22.6462 39.743C22.6182 40.128 22.7722 40.391 23.0072 40.684C23.2732 41.014 23.5582 41.329 23.8432 41.643C24.3312 42.178 25.3522 42.129 25.9222 41.657C26.5552 41.137 26.5472 40.355 26.0602 39.816ZM28.5692 36.764C28.2068 36.5434 27.8513 36.3116 27.5032 36.069C26.9122 35.653 25.9032 36.036 25.4932 36.622C25.2874 36.9119 25.2043 37.2713 25.2622 37.622C25.3352 37.999 25.5642 38.212 25.8682 38.429C26.2132 38.675 26.5732 38.904 26.9312 39.126C27.5492 39.507 28.5152 39.185 28.9412 38.569C29.4022 37.896 29.1862 37.146 28.5692 36.764Z" fill="#E45A6F"/>
<path d="M21.01 39.32C20.9824 38.9503 20.9664 38.5797 20.962 38.209C20.948 37.57 20.301 37.209 19.79 37.344C19.5099 37.4307 19.2705 37.6157 19.116 37.865C18.93 38.158 18.903 38.439 18.908 38.769C18.916 39.14 18.934 39.513 18.962 39.88C18.9678 40.0186 19.0046 40.1542 19.0696 40.2768C19.1347 40.3993 19.2263 40.5058 19.3378 40.5883C19.4493 40.6709 19.5779 40.7274 19.7141 40.7539C19.8503 40.7803 19.9907 40.7759 20.125 40.741C20.713 40.586 21.05 39.953 21.01 39.32ZM17.866 38.879C18.053 38.557 18.239 38.24 18.446 37.924C18.794 37.393 18.456 36.727 17.961 36.561C17.6794 36.4721 17.3748 36.4917 17.107 36.616C16.792 36.755 16.612 36.973 16.434 37.249C16.229 37.562 16.037 37.882 15.854 38.202C15.7821 38.3206 15.7376 38.4537 15.7235 38.5916C15.7094 38.7296 15.7262 38.8689 15.7726 38.9996C15.819 39.1302 15.8939 39.2489 15.9919 39.3471C16.0899 39.4452 16.2084 39.5203 16.339 39.567C16.913 39.76 17.545 39.422 17.866 38.879ZM16.16 36.775C16.477 36.576 16.79 36.38 17.115 36.193C17.67 35.88 17.677 35.136 17.313 34.755C17.1022 34.5509 16.8241 34.4307 16.531 34.417C16.185 34.394 15.926 34.505 15.638 34.665C15.313 34.851 15.001 35.046 14.685 35.245C14.5665 35.3175 14.4655 35.4154 14.3895 35.5316C14.3135 35.6479 14.2642 35.7796 14.2454 35.9173C14.2265 36.0549 14.2385 36.195 14.2805 36.3275C14.3224 36.4599 14.3933 36.5813 14.488 36.683C14.91 37.119 15.627 37.115 16.16 36.775ZM15.337 34.09C15.704 34.129 16.074 34.176 16.441 34.236C17.071 34.34 17.545 33.767 17.504 33.244C17.469 32.9516 17.3273 32.6823 17.106 32.488C16.853 32.251 16.583 32.175 16.256 32.122C15.8894 32.0622 15.5213 32.0125 15.152 31.973C15.0143 31.9547 14.8743 31.9673 14.7421 32.0098C14.6099 32.0523 14.4888 32.1236 14.3876 32.2187C14.2863 32.3137 14.2074 32.43 14.1567 32.5593C14.1059 32.6885 14.0845 32.8275 14.094 32.966C14.146 33.57 14.712 34.016 15.337 34.09ZM16.71 31.23C16.939 31.521 17.169 31.814 17.385 32.121C17.753 32.639 18.493 32.571 18.832 32.17C19.008 31.957 19.103 31.664 19.092 31.357C19.08 31.008 18.942 30.763 18.752 30.495C18.536 30.189 18.306 29.896 18.081 29.603C17.9968 29.4926 17.8892 29.4023 17.7658 29.3387C17.6424 29.2751 17.5064 29.2398 17.3677 29.2353C17.2289 29.2308 17.0909 29.2572 16.9637 29.3127C16.8364 29.3682 16.7231 29.4513 16.632 29.556C16.239 30.019 16.317 30.732 16.71 31.23ZM19.578 29.724C19.578 30.095 19.574 30.466 19.556 30.839C19.518 31.476 20.138 31.884 20.656 31.782C20.927 31.725 21.186 31.555 21.365 31.31C21.572 31.028 21.616 30.75 21.637 30.422C21.656 30.049 21.662 29.678 21.664 29.307C21.6672 29.1682 21.6396 29.0304 21.583 28.9036C21.5264 28.7768 21.4423 28.6642 21.3368 28.574C21.2313 28.4837 21.1071 28.418 20.9731 28.3817C20.839 28.3454 20.6986 28.3393 20.562 28.364C19.969 28.486 19.584 29.091 19.578 29.724ZM22.55 30.22C22.3425 30.5288 22.1271 30.8323 21.904 31.13C21.522 31.64 21.809 32.325 22.292 32.527C22.55 32.634 22.858 32.634 23.145 32.533C23.475 32.415 23.666 32.209 23.869 31.949C24.094 31.648 24.304 31.344 24.514 31.035C24.5941 30.9216 24.6479 30.7918 24.6715 30.655C24.6951 30.5182 24.6878 30.3778 24.6503 30.2441C24.6127 30.1105 24.5458 29.9869 24.4544 29.8824C24.363 29.7779 24.2495 29.6951 24.122 29.64C23.56 29.408 22.903 29.699 22.55 30.22ZM24.987 32.3C24.633 32.404 24.276 32.502 23.911 32.589C23.291 32.734 23.07 33.444 23.314 33.909C23.444 34.151 23.682 34.354 23.968 34.458C24.294 34.577 24.573 34.544 24.893 34.472C25.254 34.388 25.616 34.288 25.971 34.187C26.579 34.011 26.823 33.351 26.569 32.863C26.288 32.325 25.598 32.129 24.987 32.3ZM23.863 37.889C23.634 37.598 23.403 37.303 23.19 36.998C22.819 36.478 22.08 36.543 21.738 36.947C21.5565 37.1783 21.4627 37.4662 21.473 37.76C21.487 38.104 21.623 38.352 21.814 38.619C22.031 38.926 22.256 39.219 22.487 39.51C22.5709 39.6207 22.6783 39.7113 22.8015 39.7753C22.9248 39.8394 23.0607 39.8752 23.1994 39.8803C23.3382 39.8854 23.4764 39.8595 23.6039 39.8046C23.7315 39.7498 23.8452 39.6672 23.937 39.563C24.327 39.102 24.249 38.387 23.863 37.889ZM25.398 35.58C25.0601 35.4248 24.7266 35.26 24.398 35.086C23.835 34.785 23.204 35.178 23.079 35.69C23.016 35.958 23.064 36.266 23.209 36.532C23.377 36.839 23.61 36.997 23.903 37.151C24.235 37.327 24.567 37.487 24.903 37.645C25.0276 37.7061 25.1643 37.7387 25.3031 37.7405C25.4419 37.7423 25.5794 37.7132 25.7056 37.6553C25.8317 37.5973 25.9434 37.5121 26.0326 37.4057C26.1217 37.2993 26.1861 37.1744 26.221 37.04C26.362 36.451 25.974 35.85 25.403 35.58" fill="white"/>
<path d="M32.3962 30.859C32.3962 30.859 34.4162 30.048 34.8472 27.437C35.2852 24.826 37.1652 25.412 37.1652 25.412L40.9532 30.277C40.7132 27.437 40.5712 23.547 41.5152 22.693C43.0452 21.32 45.0722 23.664 45.0722 23.664C45.0722 23.664 46.5792 25.227 49.1652 24.652C51.7512 24.08 51.9152 26.041 51.9152 26.041L48.3582 32.182C50.9032 31.09 54.1142 29.928 55.1472 30.502C56.9422 31.498 55.3852 34.182 55.3852 34.182C55.3852 34.182 54.3952 36.11 55.7772 38.37C57.1542 40.632 55.3542 41.421 55.3542 41.421L49.5642 40.278C51.1062 42.573 52.8332 45.499 52.4612 46.618C51.8152 48.565 48.8872 47.53 48.8872 47.53C48.8872 47.53 46.8112 46.917 44.8472 48.694C42.8832 50.471 41.7712 48.844 41.7712 48.844L41.8342 40.764C40.5472 43.043 37.6002 47.981 36.0312 48.149C33.9892 48.372 33.7162 45.284 33.7162 45.284C33.7162 45.284 33.4042 43.136 30.9752 42.087C28.5372 41.042 29.5592 39.355 29.5592 39.355L35.5162 36.687C33.1002 35.867 30.5302 34.787 30.1682 33.796C29.4662 31.863 32.3972 30.863 32.3972 30.863" fill="#F46384"/>
<path d="M41.8317 40.9999C41.8317 40.9999 36.1437 45.9939 32.4307 43.0289C32.4307 43.0289 33.8677 44.4549 33.7127 45.2769C33.7127 45.2769 34.0597 47.7789 35.3457 48.0859C35.3457 48.0859 36.2837 48.3989 37.1287 47.5119C37.9747 46.6249 40.4317 43.2519 41.8317 40.9999ZM45.5047 46.7929C45.5047 46.7929 48.4297 47.8279 49.0777 45.8829C49.4447 44.7639 47.7227 41.8379 46.1817 39.5449L51.9697 40.6859C51.9697 40.6859 53.7767 39.8949 52.3947 37.6369C51.0137 35.3749 51.9987 33.4459 51.9987 33.4459C51.9987 33.4459 52.9217 31.8499 52.5217 30.6639C53.6817 30.3499 54.6607 30.2299 55.1467 30.5019C56.9417 31.4979 55.3847 34.1819 55.3847 34.1819C55.3847 34.1819 54.3947 36.1099 55.7767 38.3699C57.1537 40.6319 55.3537 41.4209 55.3537 41.4209L49.5637 40.2779C51.1057 42.5729 52.8327 45.4989 52.4607 46.6179C51.8147 48.5649 48.8867 47.5299 48.8867 47.5299C48.8867 47.5299 46.8107 46.9169 44.8467 48.6939C42.8827 50.4709 41.7707 48.8439 41.7707 48.8439L41.7777 47.6979C43.6407 46.2479 45.5047 46.7929 45.5047 46.7929ZM44.9747 31.4489L48.5297 25.3059C48.5297 25.3059 48.5097 25.0559 48.3677 24.7629C48.6197 24.7469 48.8857 24.7139 49.1647 24.6519C51.7507 24.0799 51.9147 26.0409 51.9147 26.0409L49.7467 29.7769C48.3457 30.0829 46.5317 30.7769 44.9747 31.4489Z" fill="#D34D75"/>
<path d="M43.5634 39.3959C45.6798 39.3959 47.3954 37.6803 47.3954 35.5639C47.3954 33.4476 45.6798 31.7319 43.5634 31.7319C41.4471 31.7319 39.7314 33.4476 39.7314 35.5639C39.7314 37.6803 41.4471 39.3959 43.5634 39.3959Z" fill="#FFC84D"/>
<path d="M35.3802 33.0801C35.7822 32.9451 36.1862 32.8101 36.5772 32.6541C37.2452 32.3881 38.1422 32.9981 38.3972 33.6641C38.5282 34.0081 38.5282 34.3831 38.3882 34.6891C38.2292 35.0411 37.9542 35.1911 37.6102 35.3321C37.2192 35.4921 36.8132 35.6271 36.4132 35.7621C35.7242 35.9911 34.8622 35.4481 34.5972 34.7521C34.2972 33.9901 34.6882 33.3111 35.3802 33.0821M38.8192 28.8391C39.1622 29.0911 39.5062 29.3411 39.8602 29.5681C40.4692 29.9611 40.4892 31.0411 40.0982 31.6321C40.0034 31.7817 39.88 31.911 39.7349 32.0126C39.5899 32.1142 39.4262 32.1861 39.2532 32.2241C38.8802 32.2941 38.5972 32.1651 38.2792 31.9621C37.9252 31.7351 37.5792 31.4851 37.2342 31.2351C36.6502 30.8051 36.5882 29.7921 37.0012 29.1691C37.4562 28.4861 38.2342 28.4101 38.8192 28.8391ZM44.1802 27.6261C44.2332 28.0481 44.2892 28.4681 44.3662 28.8861C44.4992 29.5951 43.7292 30.3511 43.0302 30.4741C42.8564 30.5078 42.6776 30.5067 42.5043 30.4708C42.3309 30.4349 42.1664 30.365 42.0202 30.2651C41.7112 30.0421 41.6132 29.7471 41.5422 29.3801C41.4625 28.9641 41.3991 28.5451 41.3522 28.1241C41.2632 27.4031 41.9572 26.6631 42.6932 26.5321C43.4992 26.3921 44.0912 26.9061 44.1802 27.6261ZM49.0602 30.3101C48.7582 30.6091 48.4542 30.9081 48.1732 31.2201C47.6922 31.7551 46.6162 31.5991 46.0982 31.1181C45.8314 30.8796 45.6696 30.5453 45.6482 30.1881C45.6442 29.8051 45.8192 29.5491 46.0682 29.2701C46.3482 28.9561 46.6512 28.6571 46.9542 28.3601C47.4752 27.8501 48.4872 27.9581 49.0322 28.4641C49.6292 29.0191 49.5802 29.8001 49.0602 30.3101ZM51.4902 34.7751C51.0822 34.9001 50.6782 35.0311 50.2852 35.1791C49.6092 35.4371 48.7272 34.8121 48.4822 34.1441C48.3562 33.7961 48.3632 33.4211 48.5092 33.1171C48.6772 32.7711 48.9472 32.6231 49.2942 32.4901C49.6882 32.3361 50.0942 32.2071 50.5002 32.0801C51.1902 31.8611 52.0442 32.4201 52.2992 33.1201C52.5852 33.8871 52.1802 34.5591 51.4902 34.7751ZM50.4802 39.5761C50.0902 39.4041 49.6992 39.2401 49.3022 39.0961C48.6182 38.8521 48.3612 37.8031 48.6102 37.1371C48.7412 36.7891 48.9912 36.5121 49.2982 36.3731C49.6522 36.2191 49.9582 36.2811 50.3082 36.4081C50.7032 36.5511 51.0962 36.7171 51.4872 36.8851C52.1512 37.1721 52.4392 38.1511 52.1792 38.8441C51.8922 39.6111 51.1442 39.8611 50.4802 39.5761ZM47.1702 42.6211C47.0288 42.2193 46.873 41.8227 46.7032 41.4321C46.4172 40.7761 46.9962 39.8641 47.6472 39.5841C47.9922 39.4391 48.3682 39.4281 48.6772 39.5591C49.0322 39.7071 49.1952 39.9711 49.3422 40.3151C49.5172 40.7021 49.6672 41.0981 49.8112 41.4971C50.0622 42.1791 49.5492 43.0601 48.8652 43.3511C48.1122 43.6661 47.4232 43.3031 47.1702 42.6211ZM42.5452 43.0201C42.6262 42.6021 42.6992 42.1821 42.7522 41.7641C42.8432 41.0471 43.8062 40.5611 44.5142 40.6571C44.8772 40.7101 45.2032 40.8911 45.4102 41.1631C45.6342 41.4721 45.6382 41.7801 45.5952 42.1511C45.5462 42.5751 45.4662 42.9911 45.3902 43.4071C45.2592 44.1201 44.3652 44.6161 43.6302 44.5141C42.8182 44.4031 42.4102 43.7331 42.5452 43.0201ZM37.9432 40.8961C38.2342 40.5831 38.5172 40.2671 38.7842 39.9391C39.2352 39.3761 40.3102 39.4721 40.8572 39.9251C41.1432 40.1591 41.3262 40.4861 41.3572 40.8251C41.3852 41.2081 41.2312 41.4711 40.9962 41.7641C40.7302 42.0941 40.4452 42.4091 40.1602 42.7231C39.6722 43.2581 38.6512 43.2091 38.0812 42.7371C37.4482 42.2171 37.4562 41.4361 37.9432 40.8961ZM35.4322 37.8441C35.7982 37.6171 36.1542 37.3931 36.4982 37.1491C37.0892 36.7331 38.0982 37.1181 38.5082 37.7021C38.7172 38.0051 38.8012 38.3701 38.7392 38.7021C38.6662 39.0791 38.4372 39.2941 38.1332 39.5091C37.7882 39.7551 37.4282 39.9841 37.0702 40.2061C36.4522 40.5871 35.4862 40.2651 35.0602 39.6491C34.5992 38.9771 34.8152 38.2271 35.4322 37.8441Z" fill="#E45A6F"/>
<path d="M42.9873 40.4001C43.0133 40.0311 43.0323 39.6621 43.0353 39.2891C43.0493 38.6501 43.6963 38.2891 44.2073 38.4241C44.4693 38.4981 44.7183 38.6881 44.8813 38.9451C45.0673 39.2381 45.0943 39.5191 45.0893 39.8491C45.0814 40.2199 45.0634 40.5903 45.0353 40.9601C45.0295 41.0987 44.9927 41.2343 44.9277 41.3569C44.8626 41.4794 44.771 41.5859 44.6595 41.6684C44.548 41.751 44.4194 41.8075 44.2832 41.834C44.147 41.8604 44.0066 41.856 43.8723 41.8211C43.2843 41.6661 42.9473 41.0331 42.9873 40.4001ZM46.1303 39.9591C45.9457 39.6356 45.7523 39.3171 45.5503 39.0041C45.2023 38.4731 45.5403 37.8071 46.0353 37.6411C46.2983 37.5511 46.6083 37.5711 46.8893 37.6961C47.2043 37.8351 47.3843 38.0531 47.5623 38.3291C47.7673 38.6421 47.9593 38.9621 48.1423 39.2821C48.2144 39.4007 48.2591 39.5338 48.2733 39.6717C48.2874 39.8097 48.2707 39.9492 48.2243 40.0799C48.1778 40.2106 48.1028 40.3293 48.0048 40.4274C47.9067 40.5256 47.788 40.6006 47.6573 40.6471C47.0833 40.8401 46.4513 40.5021 46.1303 39.9591ZM47.8363 37.8551C47.5193 37.6561 47.2063 37.4601 46.8813 37.2731C46.3263 36.9621 46.3193 36.2161 46.6833 35.8351C46.8733 35.6401 47.1623 35.5151 47.4653 35.4971C47.8113 35.4741 48.0703 35.5851 48.3583 35.7451C48.6833 35.9311 48.9953 36.1261 49.3113 36.3271C49.4298 36.3994 49.5307 36.4971 49.6068 36.6132C49.6828 36.7293 49.732 36.8608 49.7509 36.9983C49.7697 37.1358 49.7577 37.2758 49.7158 37.408C49.6738 37.5403 49.603 37.6616 49.5083 37.7631C49.0863 38.1991 48.3693 38.1951 47.8363 37.8551ZM48.6643 35.1701C48.2973 35.2111 47.9273 35.2581 47.5603 35.3161C46.9303 35.4201 46.4563 34.8471 46.4973 34.3241C46.5233 34.0511 46.6663 33.7751 46.8953 33.5681C47.1483 33.3321 47.4183 33.2551 47.7453 33.2031C48.1143 33.1401 48.4833 33.0941 48.8493 33.0531C48.9869 33.0349 49.1268 33.0474 49.2589 33.0898C49.3911 33.1323 49.5121 33.2035 49.6133 33.2984C49.7146 33.3934 49.7935 33.5096 49.8443 33.6387C49.8952 33.7678 49.9167 33.9066 49.9073 34.0451C49.8543 34.6501 49.2893 35.0961 48.6643 35.1701ZM47.2903 32.3101C47.0613 32.6021 46.8313 32.8941 46.6153 33.2011C46.2473 33.7191 45.5073 33.6501 45.1683 33.2501C44.986 33.0196 44.8936 32.7307 44.9083 32.4371C44.9203 32.0891 45.0583 31.8431 45.2483 31.5761C45.4643 31.2691 45.6943 30.9761 45.9193 30.6831C46.0035 30.5727 46.1111 30.4824 46.2345 30.4188C46.3579 30.3552 46.4939 30.3199 46.6327 30.3154C46.7714 30.3109 46.9094 30.3373 47.0367 30.3928C47.1639 30.4483 47.2772 30.5314 47.3683 30.6361C47.7613 31.0991 47.6833 31.8121 47.2903 32.3101ZM44.4203 30.8041C44.4203 31.1751 44.4243 31.5461 44.4423 31.9191C44.4803 32.5561 43.8603 32.9641 43.3423 32.8631C43.0566 32.7974 42.8046 32.63 42.6333 32.3921C42.4263 32.1091 42.3823 31.8311 42.3613 31.5031C42.3439 31.1317 42.3349 30.7599 42.3343 30.3881C42.3313 30.2494 42.3591 30.1117 42.4157 29.985C42.4724 29.8583 42.5564 29.7457 42.6619 29.6555C42.7673 29.5653 42.8915 29.4996 43.0254 29.4632C43.1594 29.4268 43.2997 29.4206 43.4363 29.4451C44.0293 29.5661 44.4143 30.1711 44.4203 30.8041ZM41.4503 31.3001C41.6593 31.6091 41.8723 31.9131 42.0963 32.2101C42.4783 32.7201 42.1913 33.4061 41.7083 33.6071C41.4343 33.7132 41.1308 33.7154 40.8553 33.6131C40.5253 33.4961 40.3343 33.2911 40.1313 33.0291C39.9095 32.729 39.6944 32.4239 39.4863 32.1141C39.4062 32.0007 39.3524 31.8709 39.3288 31.7341C39.3052 31.5972 39.3125 31.4569 39.35 31.3232C39.3876 31.1896 39.4545 31.066 39.5459 30.9615C39.6373 30.857 39.7509 30.7742 39.8783 30.7191C40.4403 30.4881 41.0973 30.7791 41.4503 31.3001ZM39.0103 33.3771C39.3643 33.4811 39.7213 33.5781 40.0863 33.6641C40.7063 33.8091 40.9273 34.5191 40.6833 34.9841C40.5533 35.2261 40.3153 35.4291 40.0293 35.5331C39.7033 35.6521 39.4243 35.6211 39.1043 35.5471C38.7427 35.4608 38.3833 35.3658 38.0263 35.2621C37.8922 35.2259 37.7677 35.1605 37.6619 35.0705C37.5561 34.9804 37.4716 34.8681 37.4144 34.7414C37.3572 34.6148 37.3288 34.4771 37.3312 34.3382C37.3336 34.1993 37.3668 34.0627 37.4283 33.9381C37.7093 33.4001 38.3993 33.2051 39.0103 33.3771ZM40.1403 38.9691C40.3693 38.6781 40.6003 38.3831 40.8133 38.0781C41.1843 37.5581 41.9233 37.6231 42.2653 38.0271C42.4383 38.2361 42.5373 38.5331 42.5303 38.8401C42.5163 39.1841 42.3803 39.4321 42.1893 39.6991C41.9723 40.0061 41.7473 40.2991 41.5163 40.5901C41.4324 40.7008 41.325 40.7914 41.2018 40.8554C41.0786 40.9195 40.9427 40.9553 40.8039 40.9604C40.6651 40.9655 40.527 40.9396 40.3994 40.8847C40.2718 40.8299 40.1581 40.7473 40.0663 40.6431C39.6763 40.1821 39.7543 39.4671 40.1403 38.9691ZM38.6033 36.6601C38.9443 36.5021 39.2773 36.3401 39.6133 36.1661C40.1763 35.8671 40.8073 36.2581 40.9323 36.7701C40.9953 37.0401 40.9473 37.3461 40.8023 37.6121C40.6343 37.9191 40.4013 38.0771 40.1083 38.2311C39.7763 38.4071 39.4443 38.5671 39.1083 38.7251C38.9837 38.7862 38.847 38.8188 38.7082 38.8206C38.5694 38.8224 38.4319 38.7933 38.3058 38.7354C38.1796 38.6774 38.0679 38.5922 37.9787 38.4858C37.8896 38.3794 37.8252 38.2545 37.7903 38.1201C37.6493 37.5311 38.0373 36.9301 38.6083 36.6601" fill="white"/>
<path d="M44.9658 19.685C44.9658 19.685 43.7938 17.861 44.9468 15.478C46.1008 13.093 44.2308 12.482 44.2308 12.482L38.3228 14.259C40.1648 12.083 42.5318 8.992 42.2568 7.749C41.8088 5.749 38.7958 6.479 38.7958 6.479C38.7958 6.479 36.6638 6.883 34.8848 4.918C33.1068 2.953 31.8388 4.457 31.8388 4.457L31.1828 11.517C29.7438 9.158 27.7958 6.349 26.6198 6.22C24.5828 5.992 24.3018 9.081 24.3018 9.081C24.3018 9.081 23.9878 11.226 21.5538 12.271C19.1188 13.315 20.1328 15.002 20.1328 15.002L25.5138 17.42C22.9298 18.399 19.8278 19.786 19.4838 20.912C18.8848 22.874 21.8678 23.725 21.8678 23.725C21.8678 23.725 23.9178 24.43 24.4958 27.014C25.0658 29.6 26.9168 28.92 26.9168 28.92L31.5408 22.29C31.2698 24.894 30.8188 30.627 31.9958 31.672C33.5328 33.036 35.5408 30.676 35.5408 30.676C35.5408 30.676 37.0408 29.106 39.6328 29.657C42.2218 30.213 42.3688 28.248 42.3688 28.248L39.0558 22.623C41.4998 23.353 44.2218 23.961 45.0958 23.361C46.7838 22.199 44.9708 19.681 44.9708 19.681" fill="#EFA8B6"/>
<path d="M31.3978 22.4979C31.3978 22.4979 33.1458 29.8589 37.8868 29.5939C37.8868 29.5939 35.8948 29.9229 35.5388 30.6839C35.5388 30.6839 33.8108 32.5259 32.5858 32.0299C32.5858 32.0299 31.6398 31.7389 31.4648 30.5279C31.2878 29.3159 31.2348 25.1419 31.3978 22.4979ZM25.0498 25.0899C25.0498 25.0899 22.0648 24.2389 22.6658 22.2759C23.0138 21.1509 26.1108 19.7639 28.6958 18.7869L23.3168 16.3669C23.3168 16.3669 22.2998 14.6769 24.7378 13.6359C27.1738 12.5929 27.4818 10.4449 27.4818 10.4449C27.4818 10.4449 27.6538 8.61088 28.6678 7.87588C27.9058 6.95088 27.1758 6.28588 26.6188 6.22488C24.5818 5.99688 24.3008 9.08588 24.3008 9.08588C24.3008 9.08588 23.9868 11.2309 21.5528 12.2759C19.1178 13.3199 20.1318 15.0069 20.1318 15.0069L25.5128 17.4249C22.9288 18.4039 19.8268 19.7909 19.4828 20.9169C18.8838 22.8789 21.8668 23.7299 21.8668 23.7299C21.8668 23.7299 23.9168 24.4349 24.4948 27.0189C25.0648 29.6049 26.9158 28.9249 26.9158 28.9249L27.5708 27.9839C26.8888 25.7229 25.0518 25.0899 25.0518 25.0899M34.3698 12.8839L35.0248 5.82388C35.0248 5.82388 35.1848 5.63188 35.4718 5.47588C35.2621 5.30636 35.0652 5.12152 34.8828 4.92288C33.1048 2.95788 31.8368 4.46188 31.8368 4.46188L31.4398 8.76288C32.4098 9.82588 33.4858 11.4409 34.3698 12.8879" fill="#E295A8"/>
<path d="M33.1298 20.891C35.2456 20.891 36.9608 19.1758 36.9608 17.06C36.9608 14.9442 35.2456 13.229 33.1298 13.229C31.014 13.229 29.2988 14.9442 29.2988 17.06C29.2988 19.1758 31.014 20.891 33.1298 20.891Z" fill="#FFC84D"/>
<path d="M41.2504 19.7709C40.994 19.4323 40.7492 19.0851 40.5164 18.7299C40.1254 18.1259 39.0454 18.1049 38.4534 18.4999C38.1414 18.7029 37.9314 19.0099 37.8644 19.3419C37.7894 19.7209 37.9244 20.0019 38.1254 20.3149C38.3554 20.6719 38.6044 21.0159 38.8554 21.3579C39.2854 21.9419 40.3014 22.0009 40.9234 21.5879C41.6034 21.1379 41.6814 20.3589 41.2504 19.7709ZM40.8984 14.3219C40.4714 14.3289 40.0444 14.3319 39.6244 14.3119C38.9024 14.2789 38.2624 15.1479 38.2384 15.8589C38.2244 16.2299 38.3494 16.5859 38.5834 16.8289C38.8484 17.1029 39.1534 17.1639 39.5264 17.1799C39.9484 17.2009 40.3754 17.1979 40.8004 17.1919C41.5264 17.1799 42.1604 16.3869 42.1864 15.6409C42.2174 14.8249 41.6244 14.3109 40.8984 14.3219ZM37.2304 10.2279C36.9444 10.5419 36.6494 10.8529 36.3484 11.1499C35.8304 11.6499 36.0174 12.7139 36.5214 13.2199C36.7794 13.4819 37.1234 13.6359 37.4594 13.6339C37.8474 13.6299 38.0954 13.4459 38.3664 13.1869C38.6744 12.8959 38.9594 12.5849 39.2464 12.2729C39.7344 11.7379 39.5984 10.7299 39.0734 10.1989C38.4984 9.6189 37.7204 9.6929 37.2304 10.2279ZM31.6954 9.5879C31.7744 10.0089 31.8474 10.4269 31.8934 10.8449C31.9784 11.5619 32.9414 12.0559 33.6464 11.9659C34.001 11.9241 34.325 11.7445 34.5484 11.4659C34.7764 11.1589 34.7834 10.8469 34.7374 10.4759C34.6894 10.0559 34.6144 9.6379 34.5394 9.2179C34.4114 8.5039 33.5254 8.0039 32.7874 8.1009C31.9794 8.2079 31.5674 8.8739 31.6954 9.5879ZM27.1204 11.8219C27.3814 12.1629 27.6344 12.5019 27.8714 12.8509C28.2724 13.4529 29.3534 13.4549 29.9374 13.0499C30.2474 12.8399 30.4564 12.5299 30.5134 12.1979C30.5784 11.8189 30.4434 11.5409 30.2354 11.2289C30.0034 10.8749 29.7434 10.5359 29.4894 10.1959C29.0504 9.6209 28.0324 9.5809 27.4194 10.0039C26.7444 10.4659 26.6834 11.2469 27.1204 11.8219ZM25.1704 16.3219C25.5904 16.4089 26.0064 16.5029 26.4084 16.6129C27.1074 16.8079 27.9304 16.1029 28.1074 15.4159C28.1568 15.2464 28.1718 15.0687 28.1513 14.8933C28.1309 14.718 28.0755 14.5485 27.9884 14.3949C27.7954 14.0649 27.5094 13.9419 27.1504 13.8399C26.7406 13.7302 26.3278 13.6325 25.9124 13.5469C25.2054 13.3949 24.4044 14.0269 24.2174 14.7449C24.0064 15.5369 24.4654 16.1709 25.1704 16.3219ZM26.1104 20.7219C26.4604 20.4799 26.8134 20.2419 27.1784 20.0229C27.7914 19.6519 27.8444 18.5759 27.4774 17.9679C27.3874 17.8157 27.268 17.683 27.1262 17.5774C26.9843 17.4718 26.823 17.3955 26.6514 17.3529C26.2784 17.2669 25.9914 17.3879 25.6724 17.5819C25.3092 17.8002 24.954 18.0313 24.6074 18.2749C24.0094 18.6849 23.9184 19.7009 24.3054 20.3339C24.7374 21.0279 25.5114 21.1309 26.1104 20.7219ZM29.6504 23.7299C29.8284 23.3409 30.0074 22.9579 30.2084 22.5849C30.5504 21.9479 30.0494 20.9919 29.4164 20.6619C29.0874 20.4939 28.7174 20.4499 28.3944 20.5579C28.0314 20.6749 27.8464 20.9249 27.6684 21.2539C27.4664 21.6269 27.2884 22.0129 27.1064 22.3959C26.8044 23.0559 27.2394 23.9759 27.9034 24.3159C28.6294 24.6989 29.3474 24.3879 29.6504 23.7299ZM34.6334 24.6599C34.5754 24.2389 34.5327 23.816 34.5054 23.3919C34.4564 22.6709 33.5264 22.1259 32.8174 22.1789C32.4474 22.2049 32.1064 22.3669 31.8874 22.6229C31.6404 22.9209 31.6164 23.2259 31.6404 23.6019C31.6624 24.0239 31.7154 24.4459 31.7654 24.8679C31.8544 25.5869 32.7154 26.1359 33.4524 26.0799C34.2714 26.0209 34.7214 25.3809 34.6334 24.6599ZM38.4474 23.6249C38.2782 23.235 38.1224 22.8395 37.9804 22.4389C37.7394 21.7589 36.6904 21.4859 36.0264 21.7299C35.6764 21.8549 35.3964 22.1049 35.2564 22.4109C35.0984 22.7639 35.1544 23.0639 35.2824 23.4209C35.4224 23.8229 35.5824 24.2159 35.7464 24.6069C36.0254 25.2729 37.0004 25.5699 37.7014 25.3159C38.4744 25.0359 38.7284 24.2959 38.4474 23.6279" fill="#E45A6F"/>
<path d="M30.8091 21.333C31.0012 21.0141 31.2026 20.701 31.4131 20.394C31.7751 19.871 31.4531 19.195 30.9611 19.015C30.6817 18.9215 30.3775 18.9347 30.1071 19.052C29.7871 19.183 29.6021 19.394 29.4161 19.667C29.2031 19.974 29.0081 20.288 28.8101 20.605C28.735 20.722 28.687 20.8542 28.6695 20.9921C28.652 21.13 28.6656 21.2701 28.7092 21.402C28.7528 21.534 28.8254 21.6546 28.9216 21.7549C29.0177 21.8553 29.1351 21.9329 29.2651 21.982C29.8311 22.191 30.4741 21.871 30.8091 21.333ZM28.4961 19.15C28.8319 18.9924 29.1724 18.845 29.5171 18.708C30.1111 18.475 30.2211 17.737 29.9141 17.314C29.7351 17.0795 29.4753 16.9198 29.1851 16.866C28.8471 16.795 28.5771 16.869 28.2741 16.991C27.9221 17.126 27.5841 17.277 27.2431 17.431C27.1162 17.4868 27.0033 17.57 26.9123 17.6747C26.8213 17.7793 26.7546 17.9027 26.717 18.0361C26.6793 18.1695 26.6716 18.3096 26.6945 18.4464C26.7173 18.5831 26.7702 18.7131 26.8491 18.827C27.2041 19.314 27.9191 19.409 28.4961 19.15ZM28.3281 16.456C28.6991 16.475 29.0711 16.496 29.4411 16.531C30.0711 16.599 30.5111 15.997 30.4331 15.474C30.3791 15.1854 30.222 14.9264 29.9911 14.745C29.7241 14.526 29.4511 14.468 29.1201 14.432C28.7511 14.393 28.3801 14.371 28.0071 14.352C27.8688 14.3425 27.7301 14.3638 27.601 14.4145C27.472 14.4653 27.3558 14.5441 27.261 14.6453C27.1662 14.7465 27.0952 14.8676 27.053 14.9997C27.0108 15.1318 26.9985 15.2716 27.0171 15.409C27.1061 16.009 27.6971 16.419 28.3281 16.456ZM29.2001 13.781C29.4821 14.029 29.7581 14.281 30.0221 14.542C30.4691 14.992 31.1911 14.798 31.4601 14.348C31.6009 14.0897 31.6418 13.7886 31.5751 13.502C31.5031 13.16 31.3271 12.941 31.0951 12.712C30.8293 12.4519 30.5579 12.1975 30.2811 11.949C30.1789 11.8545 30.0571 11.7837 29.9243 11.7418C29.7915 11.7 29.6511 11.688 29.5131 11.7068C29.3752 11.7257 29.2431 11.7748 29.1264 11.8508C29.0097 11.9267 28.9112 12.0275 28.8381 12.146C28.5321 12.669 28.7341 13.361 29.2001 13.781ZM31.9821 12.245C32.0011 12.615 32.0131 12.988 32.0171 13.361C32.0131 13.998 32.6581 14.371 33.1671 14.24C33.4341 14.172 33.6811 13.984 33.8501 13.73C34.0391 13.439 34.0711 13.158 34.0711 12.83C34.0711 12.455 34.0571 12.086 34.0361 11.715C34.0323 11.5762 33.9975 11.44 33.9343 11.3164C33.871 11.1928 33.7809 11.0849 33.6705 11.0007C33.5602 10.9164 33.4324 10.8579 33.2965 10.8294C33.1606 10.8009 33.02 10.8032 32.8851 10.836C32.3021 10.986 31.9481 11.613 31.9821 12.245ZM35.1901 12.679C34.9781 12.982 34.7561 13.283 34.5261 13.575C34.1241 14.072 34.3961 14.765 34.8781 14.982C35.1291 15.091 35.4391 15.103 35.7311 15.006C36.0631 14.898 36.2571 14.696 36.4661 14.443C36.6971 14.148 36.9161 13.849 37.1331 13.548C37.2154 13.4363 37.272 13.3078 37.2987 13.1716C37.3255 13.0355 37.3219 12.8951 37.288 12.7606C37.2542 12.626 37.191 12.5006 37.1031 12.3933C37.0151 12.286 36.9045 12.1995 36.7791 12.14C36.2251 11.896 35.5601 12.167 35.1901 12.679ZM37.3201 14.808C36.9701 14.937 36.6261 15.062 36.2671 15.175C35.6611 15.368 35.4991 16.095 35.7771 16.54C35.9221 16.774 36.1731 16.954 36.4661 17.037C36.8021 17.131 37.0771 17.076 37.3951 16.979C37.7491 16.866 38.0981 16.737 38.4481 16.606C38.5789 16.5601 38.6979 16.4856 38.7963 16.388C38.8947 16.2903 38.9701 16.172 39.017 16.0415C39.0639 15.9111 39.0812 15.7718 39.0676 15.6339C39.0539 15.4959 39.0097 15.3627 38.9381 15.244C38.6171 14.728 37.9161 14.585 37.3201 14.808ZM38.1201 17.909C37.7682 17.789 37.4197 17.6589 37.0751 17.519C36.4841 17.279 35.8941 17.732 35.8241 18.251C35.7896 18.5428 35.8652 18.837 36.0361 19.076C36.2331 19.362 36.4781 19.499 36.7841 19.624C37.1291 19.765 37.4781 19.892 37.8281 20.015C38.4281 20.224 39.0121 19.827 39.0791 19.281C39.1631 18.681 38.7171 18.121 38.1201 17.909ZM33.9561 21.818C33.9357 21.4467 33.9247 21.0749 33.9231 20.703C33.9231 20.064 33.2811 19.689 32.7701 19.818C32.4881 19.8991 32.2461 20.0818 32.0911 20.331C31.8991 20.62 31.8661 20.9 31.8661 21.227C31.8631 21.602 31.8791 21.975 31.8981 22.344C31.9023 22.4827 31.9373 22.6188 32.0005 22.7423C32.0637 22.8659 32.1536 22.9738 32.2637 23.0583C32.3738 23.1428 32.5012 23.2018 32.6369 23.231C32.7726 23.2602 32.9131 23.2588 33.0481 23.227C33.6371 23.075 33.9831 22.447 33.9561 21.818ZM36.5451 20.822C36.3605 20.4997 36.1845 20.1726 36.0171 19.841C35.7311 19.27 34.9841 19.223 34.5911 19.569C34.3751 19.7681 34.239 20.0389 34.2081 20.331C34.1681 20.677 34.2661 20.94 34.4141 21.235C34.5831 21.571 34.7571 21.893 34.9411 22.217C35.0078 22.3393 35.1007 22.4453 35.2133 22.5272C35.3259 22.6092 35.4553 22.6651 35.5921 22.6909C35.729 22.7168 35.8699 22.7119 36.0046 22.6766C36.1393 22.6413 36.2645 22.5766 36.3711 22.487C36.8231 22.087 36.8541 21.373 36.5451 20.822Z" fill="white"/>
<path d="M33.3821 35.0201L30.6831 31.9901C30.6831 31.9901 29.8481 27.1791 34.1681 29.9561L35.4201 33.8271L33.3821 35.0161" fill="#DDE4E9"/>
<path d="M35.4741 33.8951L34.2031 30.0431C34.2031 30.0431 35.3531 25.2981 38.2131 29.5661L37.8191 33.6131L35.4791 33.8951" fill="#C8D2D9"/>
<path d="M36.4826 33.457L38.2276 29.535C38.2276 29.535 42.5066 26.632 41.7086 32.01L38.5206 34.907L36.4826 33.457ZM36.7706 39.27L36.5406 43.319C36.5406 43.319 33.7276 47.309 32.6416 42.294L34.4886 38.671L36.7706 39.27ZM38.4866 35.721L42.3816 36.948C42.3816 36.948 45.3196 40.958 40.0216 40.936L37.1066 38.053L38.4866 35.721Z" fill="#DDE4E9"/>
<path d="M34.5015 38.582L32.6755 42.205C32.6755 42.205 28.5075 44.744 29.5075 39.709L32.6475 37.123L34.5015 38.582Z" fill="#C8D2D9"/>
<path d="M33.2897 38.13L29.5087 39.585C29.5087 39.585 24.7117 38.663 28.8377 35.606L32.9007 35.805L33.2897 38.13Z" fill="#DDE4E9"/>
<path d="M32.8896 36.545L28.9476 35.596C28.9476 35.596 25.5266 32.115 30.6556 31.939L33.8876 34.406L32.8896 36.545ZM37.1796 34.789L41.1716 32.347C41.1716 32.347 46.8056 32.394 42.7626 36.724L38.1086 37.347L37.1796 34.789Z" fill="#C8D2D9"/>
<path d="M35.3701 39.2061C37.0966 39.2061 38.4961 37.8065 38.4961 36.0801C38.4961 34.3537 37.0966 32.9541 35.3701 32.9541C33.6437 32.9541 32.2441 34.3537 32.2441 36.0801C32.2441 37.8065 33.6437 39.2061 35.3701 39.2061Z" fill="#F8AE1C"/>
<path d="M34.6833 36.6911C34.2663 36.2204 34.0014 35.6347 33.9235 35.0107C33.8455 34.3868 33.958 33.7539 34.2463 33.1951C33.8812 33.3278 33.5444 33.5279 33.2533 33.7851C32.6329 34.3344 32.2556 35.1074 32.2043 35.9344C32.1529 36.7615 32.4316 37.5752 32.9793 38.1971C33.3163 38.5777 33.7412 38.8704 34.2169 39.0497C34.6927 39.229 35.2051 39.2895 35.7095 39.2259C36.214 39.1624 36.6953 38.9767 37.1117 38.685C37.5282 38.3933 37.8672 38.0044 38.0993 37.5521C37.5093 37.7688 36.8678 37.8026 36.2583 37.649C35.6489 37.4954 35.1 37.1615 34.6833 36.6911Z" fill="#CA8A2A"/>
<path d="M37.8536 38.25L40.2996 41.488C40.2996 41.488 40.7346 46.349 36.6566 43.232L35.7256 39.271L37.8536 38.25Z" fill="#C8D2D9"/>
</svg>
